<?xml version="1.0" encoding="UTF-8" standalone="no"?>
<!DOCTYPE svg PUBLIC "-//W3C//DTD SVG 1.1//EN"
 "http://www.w3.org/Graphics/SVG/1.1/DTD/svg11.dtd">
<!-- Generated by graphviz version 2.38.0 (20140413.2041)
 -->
<!-- Title: models_diagram Pages: 1 -->
<svg width="1053pt" height="914pt"
 viewBox="0.00 0.00 1052.62 914.00" xmlns="http://www.w3.org/2000/svg" xmlns:xlink="http://www.w3.org/1999/xlink">
<g id="graph0" class="graph" transform="scale(1 1) rotate(0) translate(4 910)">
<title>models_diagram</title>
<polygon fill="none" stroke="none" points="-4,4 -4,-910 1048.62,-910 1048.62,4 -4,4"/>
<!-- ApiKey -->
<g id="node1" class="node"><title>ApiKey</title>
<path fill="none" stroke="black" d="M78.9414,-812.5C78.9414,-812.5 187.952,-812.5 187.952,-812.5 193.952,-812.5 199.952,-818.5 199.952,-824.5 199.952,-824.5 199.952,-886.5 199.952,-886.5 199.952,-892.5 193.952,-898.5 187.952,-898.5 187.952,-898.5 78.9414,-898.5 78.9414,-898.5 72.9414,-898.5 66.9414,-892.5 66.9414,-886.5 66.9414,-886.5 66.9414,-824.5 66.9414,-824.5 66.9414,-818.5 72.9414,-812.5 78.9414,-812.5"/>
<text text-anchor="middle" x="133.447" y="-883.3" font-family="Times,serif" font-size="14.00">ApiKey</text>
<polyline fill="none" stroke="black" points="66.9414,-876.5 199.952,-876.5 "/>
<text text-anchor="start" x="74.9414" y="-861.3" font-family="Times,serif" font-size="14.00">id :integer</text>
<text text-anchor="start" x="74.9414" y="-847.3" font-family="Times,serif" font-size="14.00">access_token :string</text>
<text text-anchor="start" x="74.9414" y="-833.3" font-family="Times,serif" font-size="14.00">created_at :datetime</text>
<text text-anchor="start" x="74.9414" y="-819.3" font-family="Times,serif" font-size="14.00">updated_at :datetime</text>
</g>
<!-- Circle -->
<g id="node2" class="node"><title>Circle</title>
<path fill="none" stroke="black" d="M229.941,-805.5C229.941,-805.5 338.952,-805.5 338.952,-805.5 344.952,-805.5 350.952,-811.5 350.952,-817.5 350.952,-817.5 350.952,-893.5 350.952,-893.5 350.952,-899.5 344.952,-905.5 338.952,-905.5 338.952,-905.5 229.941,-905.5 229.941,-905.5 223.941,-905.5 217.941,-899.5 217.941,-893.5 217.941,-893.5 217.941,-817.5 217.941,-817.5 217.941,-811.5 223.941,-805.5 229.941,-805.5"/>
<text text-anchor="middle" x="284.447" y="-890.3" font-family="Times,serif" font-size="14.00">Circle</text>
<polyline fill="none" stroke="black" points="217.941,-883.5 350.952,-883.5 "/>
<text text-anchor="start" x="225.941" y="-868.3" font-family="Times,serif" font-size="14.00">id :integer</text>
<text text-anchor="start" x="225.941" y="-854.3" font-family="Times,serif" font-size="14.00">name :string</text>
<text text-anchor="start" x="225.941" y="-840.3" font-family="Times,serif" font-size="14.00">admin_id :integer</text>
<text text-anchor="start" x="225.941" y="-826.3" font-family="Times,serif" font-size="14.00">created_at :datetime</text>
<text text-anchor="start" x="225.941" y="-812.3" font-family="Times,serif" font-size="14.00">updated_at :datetime</text>
</g>
<!-- Comment -->
<g id="node3" class="node"><title>Comment</title>
<path fill="none" stroke="black" d="M180.941,-194.5C180.941,-194.5 289.952,-194.5 289.952,-194.5 295.952,-194.5 301.952,-200.5 301.952,-206.5 301.952,-206.5 301.952,-296.5 301.952,-296.5 301.952,-302.5 295.952,-308.5 289.952,-308.5 289.952,-308.5 180.941,-308.5 180.941,-308.5 174.941,-308.5 168.941,-302.5 168.941,-296.5 168.941,-296.5 168.941,-206.5 168.941,-206.5 168.941,-200.5 174.941,-194.5 180.941,-194.5"/>
<text text-anchor="middle" x="235.447" y="-293.3" font-family="Times,serif" font-size="14.00">Comment</text>
<polyline fill="none" stroke="black" points="168.941,-286.5 301.952,-286.5 "/>
<text text-anchor="start" x="176.941" y="-271.3" font-family="Times,serif" font-size="14.00">id :integer</text>
<text text-anchor="start" x="176.941" y="-257.3" font-family="Times,serif" font-size="14.00">circle_id :integer</text>
<text text-anchor="start" x="176.941" y="-243.3" font-family="Times,serif" font-size="14.00">user_id :integer</text>
<text text-anchor="start" x="176.941" y="-229.3" font-family="Times,serif" font-size="14.00">message :text</text>
<text text-anchor="start" x="176.941" y="-215.3" font-family="Times,serif" font-size="14.00">created_at :datetime</text>
<text text-anchor="start" x="176.941" y="-201.3" font-family="Times,serif" font-size="14.00">updated_at :datetime</text>
</g>
<!-- Circle&#45;&gt;Comment -->
<g id="edge2" class="edge"><title>Circle&#45;&gt;Comment</title>
<path fill="none" stroke="#85ad89" d="M279.803,-797.448C270.69,-685.485 250.51,-437.565 240.831,-318.647"/>
<ellipse fill="none" stroke="#85ad89" cx="280.133" cy="-801.504" rx="4" ry="4"/>
<polygon fill="#85ad89" stroke="#85ad89" points="240.823,-318.551 244.497,-308.219 240.417,-313.568 240.012,-308.584 240.012,-308.584 240.012,-308.584 240.417,-313.568 235.527,-308.949 240.823,-318.551 240.823,-318.551"/>
</g>
<!-- User -->
<g id="node13" class="node"><title>User</title>
<path fill="none" stroke="black" d="M318.169,-373.5C318.169,-373.5 498.725,-373.5 498.725,-373.5 504.725,-373.5 510.725,-379.5 510.725,-385.5 510.725,-385.5 510.725,-755.5 510.725,-755.5 510.725,-761.5 504.725,-767.5 498.725,-767.5 498.725,-767.5 318.169,-767.5 318.169,-767.5 312.169,-767.5 306.169,-761.5 306.169,-755.5 306.169,-755.5 306.169,-385.5 306.169,-385.5 306.169,-379.5 312.169,-373.5 318.169,-373.5"/>
<text text-anchor="middle" x="408.447" y="-752.3" font-family="Times,serif" font-size="14.00">User</text>
<polyline fill="none" stroke="black" points="306.169,-745.5 510.725,-745.5 "/>
<text text-anchor="start" x="314.169" y="-730.3" font-family="Times,serif" font-size="14.00">id :integer</text>
<text text-anchor="start" x="314.169" y="-716.3" font-family="Times,serif" font-size="14.00">email :string</text>
<text text-anchor="start" x="314.169" y="-702.3" font-family="Times,serif" font-size="14.00">encrypted_password :string</text>
<text text-anchor="start" x="314.169" y="-688.3" font-family="Times,serif" font-size="14.00">reset_password_token :string</text>
<text text-anchor="start" x="314.169" y="-674.3" font-family="Times,serif" font-size="14.00">reset_password_sent_at :datetime</text>
<text text-anchor="start" x="314.169" y="-660.3" font-family="Times,serif" font-size="14.00">remember_created_at :datetime</text>
<text text-anchor="start" x="314.169" y="-646.3" font-family="Times,serif" font-size="14.00">sign_in_count :integer</text>
<text text-anchor="start" x="314.169" y="-632.3" font-family="Times,serif" font-size="14.00">current_sign_in_at :datetime</text>
<text text-anchor="start" x="314.169" y="-618.3" font-family="Times,serif" font-size="14.00">last_sign_in_at :datetime</text>
<text text-anchor="start" x="314.169" y="-604.3" font-family="Times,serif" font-size="14.00">current_sign_in_ip :inet</text>
<text text-anchor="start" x="314.169" y="-590.3" font-family="Times,serif" font-size="14.00">last_sign_in_ip :inet</text>
<text text-anchor="start" x="314.169" y="-576.3" font-family="Times,serif" font-size="14.00">created_at :datetime</text>
<text text-anchor="start" x="314.169" y="-562.3" font-family="Times,serif" font-size="14.00">updated_at :datetime</text>
<text text-anchor="start" x="314.169" y="-548.3" font-family="Times,serif" font-size="14.00">first_name :string</text>
<text text-anchor="start" x="314.169" y="-534.3" font-family="Times,serif" font-size="14.00">last_name :string</text>
<text text-anchor="start" x="314.169" y="-520.3" font-family="Times,serif" font-size="14.00">date_of_birth :datetime</text>
<text text-anchor="start" x="314.169" y="-506.3" font-family="Times,serif" font-size="14.00">is_female :boolean</text>
<text text-anchor="start" x="314.169" y="-492.3" font-family="Times,serif" font-size="14.00">avatar_file_name :string</text>
<text text-anchor="start" x="314.169" y="-478.3" font-family="Times,serif" font-size="14.00">avatar_content_type :string</text>
<text text-anchor="start" x="314.169" y="-464.3" font-family="Times,serif" font-size="14.00">avatar_file_size :integer</text>
<text text-anchor="start" x="314.169" y="-450.3" font-family="Times,serif" font-size="14.00">avatar_updated_at :datetime</text>
<text text-anchor="start" x="314.169" y="-436.3" font-family="Times,serif" font-size="14.00">lat :decimal</text>
<text text-anchor="start" x="314.169" y="-422.3" font-family="Times,serif" font-size="14.00">lng :decimal</text>
<text text-anchor="start" x="314.169" y="-408.3" font-family="Times,serif" font-size="14.00">city :string</text>
<text text-anchor="start" x="314.169" y="-394.3" font-family="Times,serif" font-size="14.00">country :string</text>
<text text-anchor="start" x="314.169" y="-380.3" font-family="Times,serif" font-size="14.00">last_sync :datetime</text>
</g>
<!-- Circle&#45;&gt;User -->
<g id="edge1" class="edge"><title>Circle&#45;&gt;User</title>
<path fill="none" stroke="#06e86f" d="M310.124,-795.898C312.783,-789.829 315.58,-783.446 318.48,-776.826"/>
<polygon fill="#06e86f" stroke="#06e86f" points="310.059,-796.046 301.924,-803.399 308.053,-800.625 306.046,-805.205 306.046,-805.205 306.046,-805.205 308.053,-800.625 310.168,-807.011 310.059,-796.046 310.059,-796.046"/>
<polygon fill="#06e86f" stroke="#06e86f" points="318.483,-776.821 326.618,-769.467 320.49,-772.241 322.496,-767.661 322.496,-767.661 322.496,-767.661 320.49,-772.241 318.374,-765.855 318.483,-776.821 318.483,-776.821"/>
</g>
<!-- DataObj -->
<g id="node4" class="node"><title>DataObj</title>
<path fill="none" stroke="black" d="M673.162,-187.5C673.162,-187.5 783.731,-187.5 783.731,-187.5 789.731,-187.5 795.731,-193.5 795.731,-199.5 795.731,-199.5 795.731,-303.5 795.731,-303.5 795.731,-309.5 789.731,-315.5 783.731,-315.5 783.731,-315.5 673.162,-315.5 673.162,-315.5 667.162,-315.5 661.162,-309.5 661.162,-303.5 661.162,-303.5 661.162,-199.5 661.162,-199.5 661.162,-193.5 667.162,-187.5 673.162,-187.5"/>
<text text-anchor="middle" x="728.447" y="-300.3" font-family="Times,serif" font-size="14.00">DataObj</text>
<polyline fill="none" stroke="black" points="661.162,-293.5 795.731,-293.5 "/>
<text text-anchor="start" x="669.162" y="-278.3" font-family="Times,serif" font-size="14.00">id :integer</text>
<text text-anchor="start" x="669.162" y="-264.3" font-family="Times,serif" font-size="14.00">user_id :integer</text>
<text text-anchor="start" x="669.162" y="-250.3" font-family="Times,serif" font-size="14.00">data_type_id :integer</text>
<text text-anchor="start" x="669.162" y="-236.3" font-family="Times,serif" font-size="14.00">value :float</text>
<text text-anchor="start" x="669.162" y="-222.3" font-family="Times,serif" font-size="14.00">date :datetime</text>
<text text-anchor="start" x="669.162" y="-208.3" font-family="Times,serif" font-size="14.00">created_at :datetime</text>
<text text-anchor="start" x="669.162" y="-194.3" font-family="Times,serif" font-size="14.00">updated_at :datetime</text>
</g>
<!-- DataType -->
<g id="node5" class="node"><title>DataType</title>
<path fill="none" stroke="black" d="M755.941,-513.5C755.941,-513.5 864.952,-513.5 864.952,-513.5 870.952,-513.5 876.952,-519.5 876.952,-525.5 876.952,-525.5 876.952,-615.5 876.952,-615.5 876.952,-621.5 870.952,-627.5 864.952,-627.5 864.952,-627.5 755.941,-627.5 755.941,-627.5 749.941,-627.5 743.941,-621.5 743.941,-615.5 743.941,-615.5 743.941,-525.5 743.941,-525.5 743.941,-519.5 749.941,-513.5 755.941,-513.5"/>
<text text-anchor="middle" x="810.447" y="-612.3" font-family="Times,serif" font-size="14.00">DataType</text>
<polyline fill="none" stroke="black" points="743.941,-605.5 876.952,-605.5 "/>
<text text-anchor="start" x="751.941" y="-590.3" font-family="Times,serif" font-size="14.00">id :integer</text>
<text text-anchor="start" x="751.941" y="-576.3" font-family="Times,serif" font-size="14.00">code :string</text>
<text text-anchor="start" x="751.941" y="-562.3" font-family="Times,serif" font-size="14.00">name :string</text>
<text text-anchor="start" x="751.941" y="-548.3" font-family="Times,serif" font-size="14.00">description :string</text>
<text text-anchor="start" x="751.941" y="-534.3" font-family="Times,serif" font-size="14.00">created_at :datetime</text>
<text text-anchor="start" x="751.941" y="-520.3" font-family="Times,serif" font-size="14.00">updated_at :datetime</text>
</g>
<!-- DataType&#45;&gt;DataObj -->
<g id="edge3" class="edge"><title>DataType&#45;&gt;DataObj</title>
<path fill="none" stroke="#0010a8" d="M793.817,-505.213C780.35,-453.15 761.376,-379.801 747.337,-325.528"/>
<ellipse fill="none" stroke="#0010a8" cx="794.88" cy="-509.319" rx="4.00001" ry="4.00001"/>
<polygon fill="#0010a8" stroke="#0010a8" points="747.28,-325.307 749.132,-314.499 746.028,-320.466 744.776,-315.625 744.776,-315.625 744.776,-315.625 746.028,-320.466 740.419,-316.752 747.28,-325.307 747.28,-325.307"/>
</g>
<!-- TrackerDataType -->
<g id="node11" class="node"><title>TrackerDataType</title>
<path fill="none" stroke="black" d="M825.393,-201.5C825.393,-201.5 951.5,-201.5 951.5,-201.5 957.5,-201.5 963.5,-207.5 963.5,-213.5 963.5,-213.5 963.5,-289.5 963.5,-289.5 963.5,-295.5 957.5,-301.5 951.5,-301.5 951.5,-301.5 825.393,-301.5 825.393,-301.5 819.393,-301.5 813.393,-295.5 813.393,-289.5 813.393,-289.5 813.393,-213.5 813.393,-213.5 813.393,-207.5 819.393,-201.5 825.393,-201.5"/>
<text text-anchor="middle" x="888.447" y="-286.3" font-family="Times,serif" font-size="14.00">TrackerDataType</text>
<polyline fill="none" stroke="black" points="813.393,-279.5 963.5,-279.5 "/>
<text text-anchor="start" x="821.393" y="-264.3" font-family="Times,serif" font-size="14.00">id :integer</text>
<text text-anchor="start" x="821.393" y="-250.3" font-family="Times,serif" font-size="14.00">tracker_type_id :integer</text>
<text text-anchor="start" x="821.393" y="-236.3" font-family="Times,serif" font-size="14.00">data_type_id :integer</text>
<text text-anchor="start" x="821.393" y="-222.3" font-family="Times,serif" font-size="14.00">created_at :datetime</text>
<text text-anchor="start" x="821.393" y="-208.3" font-family="Times,serif" font-size="14.00">updated_at :datetime</text>
</g>
<!-- DataType&#45;&gt;TrackerDataType -->
<g id="edge4" class="edge"><title>DataType&#45;&gt;TrackerDataType</title>
<path fill="none" stroke="#e76411" d="M826.254,-505.256C840.208,-448.546 860.383,-366.555 873.934,-311.483"/>
<ellipse fill="none" stroke="#e76411" cx="825.257" cy="-509.308" rx="4.00001" ry="4.00001"/>
<polygon fill="#e76411" stroke="#e76411" points="873.995,-311.235 880.754,-302.6 875.189,-306.38 876.384,-301.525 876.384,-301.525 876.384,-301.525 875.189,-306.38 872.014,-300.45 873.995,-311.235 873.995,-311.235"/>
</g>
<!-- Map -->
<g id="node6" class="node"><title>Map</title>
<path fill="none" stroke="black" d="M370.941,-180.5C370.941,-180.5 479.952,-180.5 479.952,-180.5 485.952,-180.5 491.952,-186.5 491.952,-192.5 491.952,-192.5 491.952,-310.5 491.952,-310.5 491.952,-316.5 485.952,-322.5 479.952,-322.5 479.952,-322.5 370.941,-322.5 370.941,-322.5 364.941,-322.5 358.941,-316.5 358.941,-310.5 358.941,-310.5 358.941,-192.5 358.941,-192.5 358.941,-186.5 364.941,-180.5 370.941,-180.5"/>
<text text-anchor="middle" x="425.447" y="-307.3" font-family="Times,serif" font-size="14.00">Map</text>
<polyline fill="none" stroke="black" points="358.941,-300.5 491.952,-300.5 "/>
<text text-anchor="start" x="366.941" y="-285.3" font-family="Times,serif" font-size="14.00">id :integer</text>
<text text-anchor="start" x="366.941" y="-271.3" font-family="Times,serif" font-size="14.00">user_id :integer</text>
<text text-anchor="start" x="366.941" y="-257.3" font-family="Times,serif" font-size="14.00">name :string</text>
<text text-anchor="start" x="366.941" y="-243.3" font-family="Times,serif" font-size="14.00">latitude :float</text>
<text text-anchor="start" x="366.941" y="-229.3" font-family="Times,serif" font-size="14.00">longitude :float</text>
<text text-anchor="start" x="366.941" y="-215.3" font-family="Times,serif" font-size="14.00">distance :float</text>
<text text-anchor="start" x="366.941" y="-201.3" font-family="Times,serif" font-size="14.00">created_at :datetime</text>
<text text-anchor="start" x="366.941" y="-187.3" font-family="Times,serif" font-size="14.00">updated_at :datetime</text>
</g>
<!-- Relationship -->
<g id="node7" class="node"><title>Relationship</title>
<path fill="none" stroke="black" d="M521.941,-201.5C521.941,-201.5 630.952,-201.5 630.952,-201.5 636.952,-201.5 642.952,-207.5 642.952,-213.5 642.952,-213.5 642.952,-289.5 642.952,-289.5 642.952,-295.5 636.952,-301.5 630.952,-301.5 630.952,-301.5 521.941,-301.5 521.941,-301.5 515.941,-301.5 509.941,-295.5 509.941,-289.5 509.941,-289.5 509.941,-213.5 509.941,-213.5 509.941,-207.5 515.941,-201.5 521.941,-201.5"/>
<text text-anchor="middle" x="576.447" y="-286.3" font-family="Times,serif" font-size="14.00">Relationship</text>
<polyline fill="none" stroke="black" points="509.941,-279.5 642.952,-279.5 "/>
<text text-anchor="start" x="517.941" y="-264.3" font-family="Times,serif" font-size="14.00">id :integer</text>
<text text-anchor="start" x="517.941" y="-250.3" font-family="Times,serif" font-size="14.00">inviting_id :integer</text>
<text text-anchor="start" x="517.941" y="-236.3" font-family="Times,serif" font-size="14.00">invited_id :integer</text>
<text text-anchor="start" x="517.941" y="-222.3" font-family="Times,serif" font-size="14.00">created_at :datetime</text>
<text text-anchor="start" x="517.941" y="-208.3" font-family="Times,serif" font-size="14.00">updated_at :datetime</text>
</g>
<!-- Service -->
<g id="node8" class="node"><title>Service</title>
<path fill="none" stroke="black" d="M12,-180.5C12,-180.5 138.894,-180.5 138.894,-180.5 144.894,-180.5 150.894,-186.5 150.894,-192.5 150.894,-192.5 150.894,-310.5 150.894,-310.5 150.894,-316.5 144.894,-322.5 138.894,-322.5 138.894,-322.5 12,-322.5 12,-322.5 6,-322.5 0,-316.5 0,-310.5 0,-310.5 0,-192.5 0,-192.5 0,-186.5 6,-180.5 12,-180.5"/>
<text text-anchor="middle" x="75.4468" y="-307.3" font-family="Times,serif" font-size="14.00">Service</text>
<polyline fill="none" stroke="black" points="0,-300.5 150.894,-300.5 "/>
<text text-anchor="start" x="8" y="-285.3" font-family="Times,serif" font-size="14.00">id :integer</text>
<text text-anchor="start" x="8" y="-271.3" font-family="Times,serif" font-size="14.00">user_id :integer</text>
<text text-anchor="start" x="8" y="-257.3" font-family="Times,serif" font-size="14.00">service_type_id :integer</text>
<text text-anchor="start" x="8" y="-243.3" font-family="Times,serif" font-size="14.00">created_at :datetime</text>
<text text-anchor="start" x="8" y="-229.3" font-family="Times,serif" font-size="14.00">updated_at :datetime</text>
<text text-anchor="start" x="8" y="-215.3" font-family="Times,serif" font-size="14.00">uid :string</text>
<text text-anchor="start" x="8" y="-201.3" font-family="Times,serif" font-size="14.00">oauth_token :string</text>
<text text-anchor="start" x="8" y="-187.3" font-family="Times,serif" font-size="14.00">oauth_secret :string</text>
</g>
<!-- Tracker -->
<g id="node10" class="node"><title>Tracker</title>
<path fill="none" stroke="black" d="M267.393,-0.5C267.393,-0.5 393.5,-0.5 393.5,-0.5 399.5,-0.5 405.5,-6.5 405.5,-12.5 405.5,-12.5 405.5,-130.5 405.5,-130.5 405.5,-136.5 399.5,-142.5 393.5,-142.5 393.5,-142.5 267.393,-142.5 267.393,-142.5 261.393,-142.5 255.393,-136.5 255.393,-130.5 255.393,-130.5 255.393,-12.5 255.393,-12.5 255.393,-6.5 261.393,-0.5 267.393,-0.5"/>
<text text-anchor="middle" x="330.447" y="-127.3" font-family="Times,serif" font-size="14.00">Tracker</text>
<polyline fill="none" stroke="black" points="255.393,-120.5 405.5,-120.5 "/>
<text text-anchor="start" x="263.393" y="-105.3" font-family="Times,serif" font-size="14.00">id :integer</text>
<text text-anchor="start" x="263.393" y="-91.3" font-family="Times,serif" font-size="14.00">user_id :integer</text>
<text text-anchor="start" x="263.393" y="-77.3" font-family="Times,serif" font-size="14.00">service_id :integer</text>
<text text-anchor="start" x="263.393" y="-63.3" font-family="Times,serif" font-size="14.00">tracker_type_id :integer</text>
<text text-anchor="start" x="263.393" y="-49.3" font-family="Times,serif" font-size="14.00">mac_address :string</text>
<text text-anchor="start" x="263.393" y="-35.3" font-family="Times,serif" font-size="14.00">lastSyncTime :datetime</text>
<text text-anchor="start" x="263.393" y="-21.3" font-family="Times,serif" font-size="14.00">created_at :datetime</text>
<text text-anchor="start" x="263.393" y="-7.3" font-family="Times,serif" font-size="14.00">updated_at :datetime</text>
</g>
<!-- Service&#45;&gt;Tracker -->
<g id="edge5" class="edge"><title>Service&#45;&gt;Tracker</title>
<path fill="none" stroke="#de4251" d="M157.626,-181.334C158.234,-180.886 158.841,-180.441 159.447,-180 187.056,-159.881 218.417,-139.506 246.674,-121.984"/>
<ellipse fill="none" stroke="#de4251" cx="154.281" cy="-183.834" rx="4.00002" ry="4.00002"/>
<polygon fill="#de4251" stroke="#de4251" points="246.825,-121.891 257.699,-120.471 251.081,-119.266 255.337,-116.641 255.337,-116.641 255.337,-116.641 251.081,-119.266 252.974,-112.811 246.825,-121.891 246.825,-121.891"/>
</g>
<!-- ServiceType -->
<g id="node9" class="node"><title>ServiceType</title>
<path fill="none" stroke="black" d="M20.9414,-527.5C20.9414,-527.5 129.952,-527.5 129.952,-527.5 135.952,-527.5 141.952,-533.5 141.952,-539.5 141.952,-539.5 141.952,-601.5 141.952,-601.5 141.952,-607.5 135.952,-613.5 129.952,-613.5 129.952,-613.5 20.9414,-613.5 20.9414,-613.5 14.9414,-613.5 8.94141,-607.5 8.94141,-601.5 8.94141,-601.5 8.94141,-539.5 8.94141,-539.5 8.94141,-533.5 14.9414,-527.5 20.9414,-527.5"/>
<text text-anchor="middle" x="75.4468" y="-598.3" font-family="Times,serif" font-size="14.00">ServiceType</text>
<polyline fill="none" stroke="black" points="8.94141,-591.5 141.952,-591.5 "/>
<text text-anchor="start" x="16.9414" y="-576.3" font-family="Times,serif" font-size="14.00">id :integer</text>
<text text-anchor="start" x="16.9414" y="-562.3" font-family="Times,serif" font-size="14.00">name :string</text>
<text text-anchor="start" x="16.9414" y="-548.3" font-family="Times,serif" font-size="14.00">created_at :datetime</text>
<text text-anchor="start" x="16.9414" y="-534.3" font-family="Times,serif" font-size="14.00">updated_at :datetime</text>
</g>
<!-- ServiceType&#45;&gt;Service -->
<g id="edge6" class="edge"><title>ServiceType&#45;&gt;Service</title>
<path fill="none" stroke="#0fc629" d="M75.4468,-519.169C75.4468,-469.151 75.4468,-391.651 75.4468,-333.065"/>
<ellipse fill="none" stroke="#0fc629" cx="75.4468" cy="-523.405" rx="4" ry="4"/>
<polygon fill="#0fc629" stroke="#0fc629" points="75.4469,-332.727 79.9468,-322.727 75.4468,-327.727 75.4468,-322.727 75.4468,-322.727 75.4468,-322.727 75.4468,-327.727 70.9468,-322.727 75.4469,-332.727 75.4469,-332.727"/>
</g>
<!-- TrackerType -->
<g id="node12" class="node"><title>TrackerType</title>
<path fill="none" stroke="black" d="M842,-805.5C842,-805.5 968.894,-805.5 968.894,-805.5 974.894,-805.5 980.894,-811.5 980.894,-817.5 980.894,-817.5 980.894,-893.5 980.894,-893.5 980.894,-899.5 974.894,-905.5 968.894,-905.5 968.894,-905.5 842,-905.5 842,-905.5 836,-905.5 830,-899.5 830,-893.5 830,-893.5 830,-817.5 830,-817.5 830,-811.5 836,-805.5 842,-805.5"/>
<text text-anchor="middle" x="905.447" y="-890.3" font-family="Times,serif" font-size="14.00">TrackerType</text>
<polyline fill="none" stroke="black" points="830,-883.5 980.894,-883.5 "/>
<text text-anchor="start" x="838" y="-868.3" font-family="Times,serif" font-size="14.00">id :integer</text>
<text text-anchor="start" x="838" y="-854.3" font-family="Times,serif" font-size="14.00">service_type_id :integer</text>
<text text-anchor="start" x="838" y="-840.3" font-family="Times,serif" font-size="14.00">name :string</text>
<text text-anchor="start" x="838" y="-826.3" font-family="Times,serif" font-size="14.00">created_at :datetime</text>
<text text-anchor="start" x="838" y="-812.3" font-family="Times,serif" font-size="14.00">updated_at :datetime</text>
</g>
<!-- TrackerType&#45;&gt;DataType -->
<g id="edge8" class="edge"><title>TrackerType&#45;&gt;DataType</title>
<path fill="none" stroke="#45d038" d="M885.678,-795.61C870.159,-749.38 848.563,-685.045 832.488,-637.158"/>
<polygon fill="#45d038" stroke="#45d038" points="885.717,-795.725 884.633,-806.637 887.308,-800.465 888.899,-805.205 888.899,-805.205 888.899,-805.205 887.308,-800.465 893.165,-803.773 885.717,-795.725 885.717,-795.725"/>
<polygon fill="#45d038" stroke="#45d038" points="832.43,-636.987 833.514,-626.075 830.839,-632.247 829.248,-627.507 829.248,-627.507 829.248,-627.507 830.839,-632.247 824.982,-628.939 832.43,-636.987 832.43,-636.987"/>
</g>
<!-- TrackerType&#45;&gt;Tracker -->
<g id="edge9" class="edge"><title>TrackerType&#45;&gt;Tracker</title>
<path fill="none" stroke="#058363" d="M935.247,-798.078C997.749,-671.084 1124.7,-359.872 972.447,-180 902.073,-96.8626 573.664,-77.9767 415.722,-73.7191"/>
<ellipse fill="none" stroke="#058363" cx="933.369" cy="-801.862" rx="4.00002" ry="4.00002"/>
<polygon fill="#058363" stroke="#058363" points="415.566,-73.7152 405.685,-68.9608 410.568,-73.5873 405.57,-73.4593 405.57,-73.4593 405.57,-73.4593 410.568,-73.5873 405.454,-77.9578 415.566,-73.7152 415.566,-73.7152"/>
</g>
<!-- TrackerType&#45;&gt;TrackerDataType -->
<g id="edge7" class="edge"><title>TrackerType&#45;&gt;TrackerDataType</title>
<path fill="none" stroke="#b80ade" d="M903.831,-797.279C900.604,-683.025 893.394,-427.674 890.12,-311.761"/>
<ellipse fill="none" stroke="#b80ade" cx="903.95" cy="-801.493" rx="4" ry="4"/>
<polygon fill="#b80ade" stroke="#b80ade" points="890.117,-311.651 894.333,-301.528 889.976,-306.653 889.835,-301.655 889.835,-301.655 889.835,-301.655 889.976,-306.653 885.337,-301.782 890.117,-311.651 890.117,-311.651"/>
</g>
<!-- User&#45;&gt;Comment -->
<g id="edge16" class="edge"><title>User&#45;&gt;Comment</title>
<path fill="none" stroke="#93031c" d="M302.165,-374.753C291.009,-354.311 280.317,-334.72 270.887,-317.439"/>
<ellipse fill="none" stroke="#93031c" cx="304.146" cy="-378.382" rx="4.00002" ry="4.00002"/>
<polygon fill="#93031c" stroke="#93031c" points="270.865,-317.399 270.024,-306.465 268.469,-313.01 266.074,-308.621 266.074,-308.621 266.074,-308.621 268.469,-313.01 262.124,-310.776 270.865,-317.399 270.865,-317.399"/>
</g>
<!-- User&#45;&gt;DataObj -->
<g id="edge15" class="edge"><title>User&#45;&gt;DataObj</title>
<path fill="none" stroke="#3ba521" d="M516.65,-465.832C552.765,-430.872 593.065,-391.471 629.447,-355 639.668,-344.754 650.388,-333.838 660.844,-323.093"/>
<ellipse fill="none" stroke="#3ba521" cx="513.766" cy="-468.622" rx="4.00002" ry="4.00002"/>
<polygon fill="#3ba521" stroke="#3ba521" points="661.065,-322.866 671.26,-318.828 664.548,-319.279 668.032,-315.692 668.032,-315.692 668.032,-315.692 664.548,-319.279 664.804,-312.557 661.065,-322.866 661.065,-322.866"/>
</g>
<!-- User&#45;&gt;Map -->
<g id="edge14" class="edge"><title>User&#45;&gt;Map</title>
<path fill="none" stroke="#aadc36" d="M419.417,-364.93C420.015,-353.778 420.596,-342.959 421.145,-332.722"/>
<ellipse fill="none" stroke="#aadc36" cx="419.186" cy="-369.254" rx="4" ry="4"/>
<polygon fill="#aadc36" stroke="#aadc36" points="421.147,-332.674 426.176,-322.929 421.415,-327.681 421.683,-322.688 421.683,-322.688 421.683,-322.688 421.415,-327.681 417.189,-322.447 421.147,-332.674 421.147,-332.674"/>
</g>
<!-- User&#45;&gt;Relationship -->
<g id="edge10" class="edge"><title>User&#45;&gt;Relationship</title>
<path fill="none" stroke="#3053ef" d="M515.099,-427.373C529.493,-403.999 542.906,-379.414 553.447,-355 559.321,-341.396 563.783,-326.102 567.138,-311.562"/>
<ellipse fill="none" stroke="#3053ef" cx="512.924" cy="-430.863" rx="4.00002" ry="4.00002"/>
<polygon fill="#3053ef" stroke="#3053ef" points="567.168,-311.419 573.685,-302.599 568.228,-306.532 569.287,-301.646 569.287,-301.646 569.287,-301.646 568.228,-306.532 564.889,-300.692 567.168,-311.419 567.168,-311.419"/>
<text text-anchor="middle" x="591.888" y="-343.8" font-family="Times,serif" font-size="14.00">sent_invites</text>
</g>
<!-- User&#45;&gt;Relationship -->
<g id="edge11" class="edge"><title>User&#45;&gt;Relationship</title>
<path fill="none" stroke="#a3a35e" d="M440.463,-366.18C445.471,-357.261 451.187,-348.8 457.708,-341 471.192,-324.873 483.777,-334.387 501.447,-323 508.206,-318.644 514.907,-313.641 521.361,-308.353"/>
<ellipse fill="none" stroke="#a3a35e" cx="438.481" cy="-369.898" rx="4.00002" ry="4.00002"/>
<polygon fill="#a3a35e" stroke="#a3a35e" points="521.769,-308.006 532.303,-304.959 525.579,-304.768 529.389,-301.53 529.389,-301.53 529.389,-301.53 525.579,-304.768 526.474,-298.101 521.769,-308.006 521.769,-308.006"/>
<text text-anchor="middle" x="503.316" y="-343.8" font-family="Times,serif" font-size="14.00">received_invites</text>
</g>
<!-- User&#45;&gt;Service -->
<g id="edge17" class="edge"><title>User&#45;&gt;Service</title>
<path fill="none" stroke="#ca95f4" d="M299.843,-466.114C252.732,-421.267 198.557,-369.695 155.241,-328.461"/>
<ellipse fill="none" stroke="#ca95f4" cx="302.921" cy="-469.045" rx="4.00002" ry="4.00002"/>
<ellipse fill="#ca95f4" stroke="#ca95f4" cx="152.101" cy="-325.471" rx="4.00002" ry="4.00002"/>
</g>
<!-- User&#45;&gt;Tracker -->
<g id="edge18" class="edge"><title>User&#45;&gt;Tracker</title>
<path fill="none" stroke="#5b11c0" d="M356.946,-365.346C354.157,-351.065 351.615,-336.847 349.447,-323 340.613,-266.58 335.845,-202.343 333.295,-153.045"/>
<ellipse fill="none" stroke="#5b11c0" cx="357.742" cy="-369.361" rx="4.00001" ry="4.00001"/>
<polygon fill="#5b11c0" stroke="#5b11c0" points="333.28,-152.748 337.278,-142.537 333.032,-147.754 332.784,-142.76 332.784,-142.76 332.784,-142.76 333.032,-147.754 328.289,-142.984 333.28,-152.748 333.28,-152.748"/>
</g>
<!-- User&#45;&gt;User -->
<g id="edge12" class="edge"><title>User&#45;&gt;User</title>
<path fill="none" stroke="#e33120" d="M520.322,-583.306C525.618,-580.083 528.725,-575.815 528.725,-570.5 528.725,-565.185 525.618,-560.917 520.322,-557.694"/>
<polygon fill="#e33120" stroke="#e33120" points="520.286,-583.321 509.321,-583.146 515.694,-585.3 511.102,-587.278 511.102,-587.278 511.102,-587.278 515.694,-585.3 512.883,-591.411 520.286,-583.321 520.286,-583.321"/>
<polygon fill="#e33120" stroke="#e33120" points="520.286,-557.679 512.883,-549.589 515.694,-555.7 511.102,-553.722 511.102,-553.722 511.102,-553.722 515.694,-555.7 509.321,-557.854 520.286,-557.679 520.286,-557.679"/>
<text text-anchor="middle" x="566.052" y="-566.3" font-family="Times,serif" font-size="14.00">invited_users</text>
</g>
<!-- User&#45;&gt;User -->
<g id="edge13" class="edge"><title>User&#45;&gt;User</title>
<path fill="none" stroke="#63c07b" d="M520.786,-610.986C564.768,-611.499 603.38,-598.004 603.38,-570.5 603.38,-542.996 564.768,-529.501 520.786,-530.014"/>
<polygon fill="#63c07b" stroke="#63c07b" points="520.723,-610.984 510.889,-606.132 515.727,-610.806 510.73,-610.629 510.73,-610.629 510.73,-610.629 515.727,-610.806 510.57,-615.126 520.723,-610.984 520.723,-610.984"/>
<polygon fill="#63c07b" stroke="#63c07b" points="520.723,-530.016 510.57,-525.874 515.727,-530.194 510.73,-530.371 510.73,-530.371 510.73,-530.371 515.727,-530.194 510.889,-534.868 520.723,-530.016 520.723,-530.016"/>
<text text-anchor="middle" x="643.045" y="-566.3" font-family="Times,serif" font-size="14.00">inviting_users</text>
</g>
</g>
</svg>
