<?xml version="1.0" encoding="utf-8"?>
<!-- Generator: Adobe Illustrator 18.1.0, SVG Export Plug-In . SVG Version: 6.00 Build 0)  -->
<svg version="1.1" id="Calque_1" xmlns="http://www.w3.org/2000/svg" xmlns:xlink="http://www.w3.org/1999/xlink" x="0px" y="0px"
	 viewBox="82.9 17 594.7 594.7" enable-background="new 82.9 17 594.7 594.7" xml:space="preserve">
<g>
	<path fill="#010202" d="M380.3,42c36.8,0,72.4,7.2,105.9,21.3c32.4,13.7,61.5,33.3,86.4,58.3c25,25,44.6,54.1,58.4,86.6
		c14.2,33.6,21.5,69.3,21.6,106.2c0,36.9-7.2,72.6-21.3,106.2C617.6,453,598,482.1,573,507.1c-25,25-54.1,44.6-86.5,58.3
		c-33.6,14.2-69.3,21.3-106.2,21.3s-72.6-7.2-106.2-21.3c-32.4-13.7-61.6-33.3-86.5-58.3c-25-25-44.6-54.1-58.3-86.5
		c-14.2-33.6-21.3-69.3-21.3-106.2c0-36.9,7.2-72.6,21.4-106.2c13.7-32.4,33.4-61.5,58.4-86.5c25-25,54.1-44.6,86.6-58.3
		C307.8,49.2,343.5,42,380.3,42 M380.3,17C216.1,17,82.9,149.7,82.9,314.4s132.7,297.4,297.4,297.4s297.4-132.7,297.4-297.4
		C677,149.7,544.4,17,380.3,17L380.3,17z"/>
</g>
<g>
	<path d="M276.5,264.5l-3.3,24c3.4-1.1,7-2,10.8-2c22.4,0,39,17.8,39,39.2S306.4,365,283.9,365c-14,0-26.5-6.4-33.5-16.3l12.4-9.6
		c4.4,5.7,12.1,10.5,21.2,10.5c13.7,0,22.7-10.8,22.7-23.7s-9.1-23.7-23.2-23.7c-6.9,0-13.1,2.6-17.3,6.5L255,307l8.2-58h53.6v15.5
		H276.5z"/>
	<path d="M380.3,247.4c28.6,0,39.2,26.3,39.2,58.8S408.8,365,380.3,365s-39.2-26.3-39.2-58.8S351.7,247.4,380.3,247.4z M380.3,262.9
		c-18,0-22.9,20.4-22.9,43.3s4.9,43.3,22.9,43.3c18,0,22.9-20.4,22.9-43.3S398.2,262.9,380.3,262.9z"/>
	<path d="M465.2,313.5V285h14.7v28.6h28.6v14.7h-28.6v28.6h-14.7v-28.6h-28.6v-14.7H465.2z"/>
</g>
</svg>
