<?xml version="1.0" encoding="utf-8"?>
<!-- Generator: Adobe Illustrator 18.1.0, SVG Export Plug-In . SVG Version: 6.00 Build 0)  -->
<svg version="1.1" id="Calque_1" xmlns="http://www.w3.org/2000/svg" xmlns:xlink="http://www.w3.org/1999/xlink" x="0px" y="0px"
	 viewBox="128.1 -3.4 594.7 594.7" enable-background="new 128.1 -3.4 594.7 594.7" xml:space="preserve">
<g>
	<path fill="#010202" d="M422.8,21.6c36.8,0,72.4,7.2,105.9,21.3c32.4,13.7,61.5,33.3,86.4,58.3c25,25,44.6,54.1,58.4,86.6
		c14.2,33.6,21.5,69.3,21.6,106.2c0,36.9-7.2,72.6-21.3,106.2c-13.7,32.4-33.3,61.6-58.3,86.5c-25,25-54.1,44.6-86.5,58.3
		c-33.6,14.2-69.3,21.3-106.2,21.3s-72.6-7.2-106.2-21.3c-32.4-13.7-61.6-33.3-86.5-58.3c-25-25-44.6-54.1-58.3-86.5
		c-14.2-33.6-21.3-69.3-21.3-106.2c0-36.9,7.2-72.6,21.4-106.2c13.7-32.4,33.4-61.5,58.4-86.5c25-25,54.1-44.6,86.6-58.3
		C350.3,28.8,386,21.6,422.8,21.6 M422.8-3.4C258.7-3.4,125.4,129.3,125.4,294s132.7,297.4,297.4,297.4S720.1,458.7,720.1,294
		C719.6,129.3,586.9-3.4,422.8-3.4L422.8-3.4z"/>
</g>
<g>
	<path d="M249.1,231.4l58.8-76h11.4v71.1h18V242h-18v27.8H303V242h-53.9V231.4z M303,226.5v-38.5l-30.7,38.5H303z"/>
	<path d="M371.6,170.9l-3.3,24c3.4-1.1,7-2,10.8-2c22.4,0,39,17.8,39,39.2s-16.7,39.2-39.2,39.2c-14,0-26.5-6.4-33.5-16.3l12.4-9.6
		c4.4,5.7,12.1,10.5,21.2,10.5c13.7,0,22.7-10.8,22.7-23.7s-9.1-23.7-23.2-23.7c-6.9,0-13.1,2.6-17.3,6.5l-11.3-1.6l8.2-58h53.6
		v15.5H371.6z"/>
</g>
<g>
	<path d="M434.9,387.4l58.8-76h11.4v71.1h18V398h-18v27.8h-16.3V398h-53.9V387.4z M488.8,382.5v-38.5l-30.7,38.5H488.8z"/>
	<path d="M573,387.4c-2.1,0.3-4.2,0.3-6.2,0.3c-20.9,0-37.9-16.7-37.9-38.7c0-21.9,16.8-39.2,39.7-39.2c23,0,39.5,17.3,39.5,38.7
		c0,5.4-0.8,10.8-3.8,17.5c-2.3,5.2-6.2,11.8-10.8,18.6l-27.1,41.2H548L573,387.4z M591.9,349c0-13.6-10.1-23.7-23.4-23.7
		c-13.7,0-23.4,10.6-23.4,23.4c0,12.9,9.6,24,23,24c7.4,0,13.9-2.1,18-6C590.1,360.6,591.9,355.5,591.9,349z"/>
</g>
<g>
	<path d="M391.3,341.7l53.3-114.3h16.2l-53.3,114.3H391.3z"/>
</g>
</svg>
