<?xml version="1.0" encoding="utf-8"?>
<!-- Generator: Adobe Illustrator 18.1.0, SVG Export Plug-In . SVG Version: 6.00 Build 0)  -->
<svg version="1.1" id="Calque_1" xmlns="http://www.w3.org/2000/svg" xmlns:xlink="http://www.w3.org/1999/xlink" x="0px" y="0px"
	 viewBox="128.1 -3.4 594.7 594.7" enable-background="new 128.1 -3.4 594.7 594.7" xml:space="preserve">
<g>
	<path fill="#010202" d="M422.8,21.6c36.8,0,72.4,7.2,105.9,21.3c32.4,13.7,61.5,33.3,86.4,58.3c25,25,44.6,54.1,58.4,86.6
		c14.2,33.6,21.5,69.3,21.6,106.2c0,36.9-7.2,72.6-21.3,106.2c-13.7,32.4-33.3,61.6-58.3,86.5c-25,25-54.1,44.6-86.5,58.3
		c-33.6,14.2-69.3,21.3-106.2,21.3s-72.6-7.2-106.2-21.3c-32.4-13.7-61.6-33.3-86.5-58.3c-25-25-44.6-54.1-58.3-86.5
		c-14.2-33.6-21.3-69.3-21.3-106.2c0-36.9,7.2-72.6,21.4-106.2c13.7-32.4,33.4-61.5,58.4-86.5c25-25,54.1-44.6,86.6-58.3
		C350.3,28.8,386,21.6,422.8,21.6 M422.8-3.4C258.7-3.4,125.4,129.3,125.4,294s132.7,297.4,297.4,297.4S720.1,458.7,720.1,294
		C719.6,129.3,586.9-3.4,422.8-3.4L422.8-3.4z"/>
</g>
<g>
	<path d="M245.9,231.4l58.8-76h11.4v71.1h18V242h-18v27.8h-16.3V242h-53.9V231.4z M299.8,226.5v-38.5L269,226.5H299.8z"/>
	<path d="M383.9,153.8c28.6,0,39.2,26.3,39.2,58.8s-10.6,58.8-39.2,58.8s-39.2-26.3-39.2-58.8S355.3,153.8,383.9,153.8z
		 M383.9,169.3c-18,0-22.9,20.4-22.9,43.3s4.9,43.3,22.9,43.3c18,0,22.9-20.4,22.9-43.3S401.8,169.3,383.9,169.3z"/>
</g>
<g>
	<path d="M434.9,387.4l58.8-76h11.4v71.1h18V398h-18v27.8h-16.3V398h-53.9V387.4z M488.8,382.5v-38.5l-30.7,38.5H488.8z"/>
	<path d="M527.2,387.4l58.8-76h11.4v71.1h18V398h-18v27.8h-16.3V398h-53.9V387.4z M581.1,382.5v-38.5l-30.7,38.5H581.1z"/>
</g>
<g>
	<path d="M391.3,341.7l53.3-114.3h16.2l-53.3,114.3H391.3z"/>
</g>
</svg>
