<?xml version="1.0" encoding="utf-8"?>
<!-- Generator: Adobe Illustrator 18.1.0, SVG Export Plug-In . SVG Version: 6.00 Build 0)  -->
<svg version="1.1" id="Calque_1" xmlns="http://www.w3.org/2000/svg" xmlns:xlink="http://www.w3.org/1999/xlink" x="0px" y="0px"
	 viewBox="128.1 -3.4 594.7 594.7" enable-background="new 128.1 -3.4 594.7 594.7" xml:space="preserve">
<g>
	<path fill="#010202" d="M422.8,21.6c36.8,0,72.4,7.2,105.9,21.3c32.4,13.7,61.5,33.3,86.4,58.3c25,25,44.6,54.1,58.4,86.6
		c14.2,33.6,21.5,69.3,21.6,106.2c0,36.9-7.2,72.6-21.3,106.2c-13.7,32.4-33.3,61.6-58.3,86.5c-25,25-54.1,44.6-86.5,58.3
		c-33.6,14.2-69.3,21.3-106.2,21.3s-72.6-7.2-106.2-21.3c-32.4-13.7-61.6-33.3-86.5-58.3c-25-25-44.6-54.1-58.3-86.5
		c-14.2-33.6-21.3-69.3-21.3-106.2c0-36.9,7.2-72.6,21.4-106.2c13.7-32.4,33.4-61.5,58.4-86.5c25-25,54.1-44.6,86.6-58.3
		C350.3,28.8,386,21.6,422.8,21.6 M422.8-3.4C258.7-3.4,125.4,129.3,125.4,294s132.7,297.4,297.4,297.4S720.1,458.7,720.1,294
		C719.6,129.3,586.9-3.4,422.8-3.4L422.8-3.4z"/>
</g>
<g>
	<path d="M253,179.7c6-21.6,23.5-26,33.6-26c19.9,0,34.8,15.7,34.8,34.5c0,13.2-6.5,24-14.9,33.5l-28.7,32.5h43.6v15.5h-68.6v-10.6
		l39-44.6c9-10.3,13.2-16.7,13.2-26.3c0-9.8-7.4-18.9-18.1-18.9c-10.3,0-16.5,6.4-19.4,15.2L253,179.7z"/>
	<path d="M380.2,153.8c28.6,0,39.2,26.3,39.2,58.8s-10.6,58.8-39.2,58.8S341,245.1,341,212.6S351.6,153.8,380.2,153.8z M380.2,169.3
		c-18,0-22.9,20.4-22.9,43.3s4.9,43.3,22.9,43.3c18,0,22.9-20.4,22.9-43.3S398.2,169.3,380.2,169.3z"/>
</g>
<g>
	<path d="M443.7,335.7c6-21.6,23.5-26,33.6-26c19.9,0,34.8,15.7,34.8,34.5c0,13.2-6.5,24-14.9,33.5l-28.7,32.5h43.6v15.5h-68.6
		v-10.6l39-44.6c9-10.3,13.2-16.7,13.2-26.3c0-9.8-7.4-18.9-18.1-18.9c-10.3,0-16.5,6.4-19.4,15.2L443.7,335.7z"/>
	<path d="M521.9,387.4l58.8-76h11.4v71.1h18V398h-18v27.8h-16.3V398h-53.9V387.4z M575.8,382.5v-38.5l-30.7,38.5H575.8z"/>
</g>
<g>
	<path d="M391.3,341.7l53.3-114.3h16.2l-53.3,114.3H391.3z"/>
</g>
</svg>
