<?xml version="1.0" encoding="utf-8"?>
<!-- Generator: Adobe Illustrator 18.1.0, SVG Export Plug-In . SVG Version: 6.00 Build 0)  -->
<svg version="1.1" id="Calque_1" xmlns="http://www.w3.org/2000/svg" xmlns:xlink="http://www.w3.org/1999/xlink" x="0px" y="0px"
	 viewBox="0 0 2126 1417.3" enable-background="new 0 0 2126 1417.3" xml:space="preserve">
<g>
	<path fill="#FFFFFF" d="M580.5,538.4c62.6-69.7,165.7-73.9,237.5-9.3c32.4,29.1,51.4,66,57.2,104.2l72.4-0.5l-39.2,43.7l-32.8,0.4
		c-4,32.1-17.8,63-41.5,89.4c-62.6,69.7-165.7,73.9-237.5,9.3C524.7,711,517.8,608.1,580.5,538.4z M800.5,736.1
		c15.8-17.6,25.4-38.2,29-59.2l-119,0l1-43.6l116.3,0.2c-5.7-24.8-19.4-49.2-41.6-69.2c-53.2-47.8-127.1-46.2-172.4,4.2
		c-45.2,50.3-39,124.1,14.2,171.9C681.6,788.4,755.3,786.5,800.5,736.1z"/>
	<path fill="#FFFFFF" d="M1254.6,891.2l-31.9,31.9l-251-251l31.9-31.9L1254.6,891.2z"/>
	<path fill="#FFFFFF" d="M1442.9,934c-31.5-1.3-62.6-13.7-94.1-45.2l-137.2-137.2l33.5-33.5L1384,857c22.1,22.1,41.2,30.5,60.9,31.5
		c24.8,1.3,49.9-8.4,69.6-28.1c19.7-19.7,29.5-44.8,28.1-69.6c-1-19.8-9.4-38.8-31.5-60.9l-138.9-138.9l33.5-33.5L1543,694.7
		c31.5,31.5,43.8,62.6,45.2,94.1c1.3,36.8-13.1,74.6-41.8,103.4C1517.6,920.9,1479.8,935.3,1442.9,934z"/>
</g>
<path fill="#FFFFFF" d="M590.6,1239.1l-31.9-31.9l251-251l31.9,31.9L590.6,1239.1z"/>
<path fill="#FFFFFF" d="M-38.5,1027.6l8.2-44.4l349.1,64.5l-8.2,44.4L-38.5,1027.6z"/>
<path fill="#FFFFFF" d="M393.6,475.2l-31.9,31.9l-251-251l31.9-31.9L393.6,475.2z"/>
<path fill="#FFFFFF" d="M1030.6,211.1l-31.9-31.9l251-251l31.9,31.9L1030.6,211.1z"/>
<path fill="#FFFFFF" d="M1234.7,178.5l11.4-43.7l343.4,89.9l-11.4,43.7L1234.7,178.5z"/>
<path fill="#FFFFFF" d="M1665,808.2l43.9-10.5l82.3,345.3l-43.9,10.5L1665,808.2z"/>
<path fill="#FFFFFF" d="M2165.3,260.2l37.3,25.4L2003,579.1l-37.3-25.4L2165.3,260.2z"/>
</svg>
