<?xml version="1.0" encoding="utf-8"?>
<!-- Generator: Adobe Illustrator 18.1.0, SVG Export Plug-In . SVG Version: 6.00 Build 0)  -->
<svg version="1.1" id="Calque_1" xmlns="http://www.w3.org/2000/svg" xmlns:xlink="http://www.w3.org/1999/xlink" x="0px" y="0px"
	 viewBox="0 0 104.1 104.1" enable-background="new 0 0 104.1 104.1" xml:space="preserve">
<path fill="#010202" d="M52.1,0.2C23.5,0.2,0.3,23.3,0.3,51.9s23.2,51.8,51.8,51.8s51.8-23.2,51.8-51.8
	C103.9,23.3,80.6,0.2,52.1,0.2z M78.6,57.1H67.8L63.2,64c-0.3,0.5-0.8,0.6-1.2,0.5c-0.5-0.2-0.8-0.5-0.9-0.9l-4.9-29.7l-5.8,40.5
	c-0.2,0.6-0.6,1.1-1.1,1.1l0,0c-0.6,0-1.1-0.5-1.2-0.9l-4.7-25.7l-2.3,7.6c-0.2,0.5-0.6,0.8-1.1,0.8H26.2v-2.3h13.1l3.4-11.4
	c0.2-0.5,0.6-0.9,1.2-0.8c0.6,0,0.9,0.5,1.1,0.9L49.2,67l5.8-41c0.2-0.6,0.6-1.1,1.2-1.1c0.6,0,1.1,0.5,1.2,0.9l5.8,34.3l3.4-5
	c0.2-0.3,0.6-0.5,0.9-0.5h11.4v2.4H78.6z"/>
</svg>
