<?xml version="1.0" encoding="utf-8"?>
<!-- Generator: Adobe Illustrator 18.1.0, SVG Export Plug-In . SVG Version: 6.00 Build 0)  -->
<svg version="1.1" id="Calque_1" xmlns="http://www.w3.org/2000/svg" xmlns:xlink="http://www.w3.org/1999/xlink" x="0px" y="0px"
	 viewBox="0 0 104.1 104.1" enable-background="new 0 0 104.1 104.1" xml:space="preserve">
<g>
	<path fill="#010202" d="M39.2,38.6h-0.2c-3.1,0-6.7,5.1-7.2,12.6c-0.2,3.1,0.2,6,0.9,8.3c0.8,0,1.7-0.2,2.6-0.2
		c0.8,0,1.7,0,2.5,0.2c1.7,0.2,3.4,0.3,5.1,0.8c1.2-2.3,1.8-5.1,2.1-8.1C45.3,45,42.7,38.9,39.2,38.6z"/>
	<path fill="#010202" d="M59.9,51.5c-0.2,5.1,2,8.6,4,8.7l0,0c2,0,4.3-3.4,4.4-8.4c0-0.2,0-0.2,0-0.3l-8.4-0.3
		C59.9,51.3,59.9,51.5,59.9,51.5z"/>
	<path fill="#010202" d="M42.1,68.5l-8.4,0.3c0,0.2,0,0.2,0,0.3c0.2,4.9,2.5,8.4,4.4,8.4l0,0c2,0,4.1-3.7,4-8.7
		C42.1,68.8,42.1,68.6,42.1,68.5z"/>
	<path fill="#010202" d="M62.9,21.3h-0.2c-3.5,0.3-6.1,6.4-5.5,13.5c0.2,3.1,0.9,5.8,2.1,8.1c1.5-0.3,3.2-0.6,5.1-0.8
		c1.7-0.2,3.4-0.2,5.1,0c0.8-2.5,1.1-5.4,0.9-8.3C69.7,26.3,66,21.3,62.9,21.3z"/>
	<path fill="#010202" d="M52.1,0C23.3,0,0,23.3,0,52.1s23.3,52.1,52.1,52.1s52.1-23.3,52.1-52.1C104.1,23.3,80.9,0,52.1,0z
		 M38.1,80.1L38.1,80.1c-3.8,0-6.9-4.7-7.2-10.9c0-0.6,0-1.2,0-1.7v-1.2l13.2-0.5l0.2,1.2c0,0.6,0.2,1.2,0.2,1.7
		C44.9,74.9,42,80,38.1,80.1z M47.3,52.2c-0.3,3.8-1.4,7.4-2.9,10L44,62.9L43,62.6c-1.7-0.5-3.5-0.8-5.5-0.9
		c-1.8-0.2-3.8-0.2-5.5,0.2L31.1,62l-0.3-0.9c-1.2-2.9-1.7-6.6-1.4-10.4c0.6-8.4,4.9-14.9,9.8-14.9c0.2,0,0.3,0,0.5,0
		C44.6,36.5,47.9,43.5,47.3,52.2z M63.9,62.8L63.9,62.8c-4-0.2-6.7-5.1-6.6-11.3c0-0.6,0-1.2,0.2-1.7l0.2-1.2L70.8,49v1.2
		c0,0.6,0,1.2,0,1.7C70.8,57.9,67.5,62.8,63.9,62.8z M71.4,44l-0.3,0.9l-0.9-0.2c-1.7-0.2-3.7-0.3-5.5-0.2c-2,0.2-3.8,0.5-5.5,0.9
		l-0.9,0.3L57.7,45c-1.7-2.8-2.6-6.3-2.9-10c-0.6-8.7,2.9-15.8,8-16.2c0.2,0,0.3,0,0.5,0c4.9,0,9.2,6.4,9.8,14.9
		C73.1,37.4,72.6,41,71.4,44z"/>
</g>
</svg>
