<?xml version="1.0" encoding="utf-8"?>
<!-- Generator: Adobe Illustrator 18.1.0, SVG Export Plug-In . SVG Version: 6.00 Build 0)  -->
<svg version="1.1" id="Calque_1" xmlns="http://www.w3.org/2000/svg" xmlns:xlink="http://www.w3.org/1999/xlink" x="0px" y="0px"
	 viewBox="123.9 0.6 594.7 594.7" enable-background="new 123.9 0.6 594.7 594.7" xml:space="preserve">
<g>
	<path fill="#010202" d="M421.3,25.6c36.8,0,72.4,7.2,105.9,21.3c32.4,13.7,61.5,33.3,86.4,58.3c25,25,44.6,54.1,58.4,86.6
		c14.2,33.6,21.5,69.3,21.6,106.2c0,36.9-7.2,72.6-21.3,106.2c-13.7,32.4-33.3,61.6-58.3,86.5c-25,25-54.1,44.6-86.5,58.3
		c-33.6,14.2-69.3,21.3-106.2,21.3s-72.6-7.2-106.2-21.3c-32.4-13.7-61.6-33.3-86.5-58.3c-25-25-44.6-54.1-58.3-86.5
		c-14.2-33.6-21.3-69.3-21.3-106.2c0-36.9,7.2-72.6,21.4-106.2c13.7-32.4,33.4-61.5,58.4-86.5c25-25,54.1-44.6,86.6-58.3
		C348.9,32.8,384.5,25.6,421.3,25.6 M421.3,0.6c-164.1,0-297.4,132.7-297.4,297.4s132.7,297.4,297.4,297.4s297.4-132.7,297.4-297.4
		C718.1,133.2,585.4,0.6,421.3,0.6L421.3,0.6z"/>
</g>
<path d="M553.5,235.2c0-72.8-59.6-132-132.3-132s-132,59.2-132,132c0,68.9,51.6,125.6,120.4,131.4v57.2H365v24.3h44.5v44.5h24.3
	v-44.5h44.5v-24.3h-44.5v-57.2C498.5,360.8,553.5,304.1,553.5,235.2z M311.8,235.2c0-60.1,48.9-109,109-109c60.1,0,109,48.9,109,109
	c0,60.1-48.9,109-109,109C360.7,344.2,311.8,295.3,311.8,235.2z"/>
</svg>
