<?xml version="1.0" encoding="utf-8"?>
<!-- Generator: Adobe Illustrator 18.1.0, SVG Export Plug-In . SVG Version: 6.00 Build 0)  -->
<svg version="1.1" id="Calque_1" xmlns="http://www.w3.org/2000/svg" xmlns:xlink="http://www.w3.org/1999/xlink" x="0px" y="0px"
	 viewBox="128.1 -3.4 594.7 594.7" enable-background="new 128.1 -3.4 594.7 594.7" xml:space="preserve">
<g>
	<path fill="#010202" d="M425.5,21.6c36.8,0,72.4,7.2,105.9,21.3c32.4,13.7,61.5,33.3,86.4,58.3c25,25,44.6,54.1,58.4,86.6
		c14.2,33.6,21.5,69.3,21.6,106.2c0,36.9-7.2,72.6-21.3,106.2c-13.7,32.4-33.3,61.6-58.3,86.5c-25,25-54.1,44.6-86.5,58.3
		c-33.6,14.2-69.3,21.3-106.2,21.3s-72.6-7.2-106.2-21.3c-32.4-13.7-61.6-33.3-86.5-58.3c-25-25-44.6-54.1-58.3-86.5
		c-14.2-33.6-21.3-69.3-21.3-106.2c0-36.9,7.2-72.6,21.4-106.2c13.7-32.4,33.4-61.5,58.4-86.5c25-25,54.1-44.6,86.6-58.3
		C353,28.8,388.7,21.6,425.5,21.6 M425.5-3.4C261.4-3.4,128.1,129.3,128.1,294s132.7,297.4,297.4,297.4S722.8,458.7,722.8,294
		C722.3,129.3,589.6-3.4,425.5-3.4L425.5-3.4z"/>
</g>
<g>
	<path stroke="#1D1D1B" stroke-width="10" stroke-miterlimit="10" d="M529.7,265c0-6.5-5.4-11.3-11.9-11.3h-22
		c-3.6,4.2-7.1,8.3-11.3,11.9h3h30.4v36.9v16.7v126.8l0,0H333.8V265.5l0,0l0,0h36.9c-4.2-3.6-7.7-7.7-11.3-11.9h-26.2
		c-6.5,0-11.9,5.4-11.9,11.3v181c0,6.5,5.4,11.3,11.9,11.3h183.9c6.5,0,11.9-5.4,11.9-11.3V329.8v-16.1L529.7,265L529.7,265z"/>
	<path stroke="#1D1D1B" stroke-width="10" stroke-miterlimit="10" d="M370.7,265.5c15.5,13.1,35.1,21.4,56.6,21.4
		c18.5,0,35.7-6,49.4-16.1c2.4-1.8,4.8-3.6,7.1-6c4.2-3.6,7.7-7.7,11.3-11.9c11.3-14.9,18.5-32.7,18.5-53c0-15.5-4.2-30.4-11.3-42.9
		c-1.8-3.6-4.2-6.5-6.5-10.1c-16.1-20.2-40.5-33.3-67.9-33.3c-47.6,0-86.3,38.7-86.3,86.3c0,20.2,7.1,38.1,18.5,53
		C363,257.8,366.5,262,370.7,265.5z M353.4,200.7c0-41.1,33.3-74.4,74.4-74.4c23.8,0,44.6,11.3,58.3,28c2.4,3,4.8,6.5,6.5,9.5
		c6,10.7,9.5,23.2,9.5,36.3c0,20.2-8.3,38.7-21.4,52.4l-0.6,0.6c-4.8,4.8-10.1,8.3-15.5,11.9c-10.7,6-23.2,9.5-36.9,9.5
		c-13.1,0-25.6-3.6-36.9-9.5c-6-3-10.7-7.1-15.5-11.9C361.8,240,353.4,221.5,353.4,200.7z"/>
</g>
</svg>
