<?xml version="1.0" encoding="utf-8"?>
<!-- Generator: Adobe Illustrator 18.1.0, SVG Export Plug-In . SVG Version: 6.00 Build 0)  -->
<svg version="1.1" id="Calque_1" xmlns="http://www.w3.org/2000/svg" xmlns:xlink="http://www.w3.org/1999/xlink" x="0px" y="0px"
	 viewBox="128.1 8.3 594.7 594.7" enable-background="new 128.1 8.3 594.7 594.7" xml:space="preserve">
<g>
	<path fill="#010202" d="M425.5,33.3c36.8,0,72.4,7.2,105.9,21.3c32.4,13.7,61.5,33.3,86.4,58.3c25,25,44.6,54.1,58.4,86.6
		c14.2,33.6,21.5,69.3,21.6,106.2c0,36.9-7.2,72.6-21.3,106.2c-13.7,32.4-33.3,61.6-58.3,86.5c-25,25-54.1,44.6-86.5,58.3
		c-33.6,14.2-69.3,21.3-106.2,21.3s-72.6-7.2-106.2-21.3c-32.4-13.7-61.6-33.3-86.5-58.3c-25-25-44.6-54.1-58.3-86.5
		c-14.2-33.6-21.3-69.3-21.3-106.2c0-36.9,7.2-72.6,21.4-106.2c13.7-32.4,33.4-61.5,58.4-86.5c25-25,54.1-44.6,86.6-58.3
		C353,40.4,388.7,33.3,425.5,33.3 M425.5,8.3c-164.1,0-297.4,132.7-297.4,297.4S260.8,603,425.5,603s297.4-132.7,297.4-297.4
		C722.3,140.9,589.6,8.3,425.5,8.3L425.5,8.3z"/>
</g>
<path d="M494.5,139.1v24.3h58.4L476,239.7c-22.9-19.3-52.5-31.2-84.8-31.2c-72.8,0-131.9,59-131.9,131.8
	c0,72.8,59.2,131.9,131.9,131.9c72.8,0,131.9-59.2,131.9-132c0-32.3-12.5-61.8-31.8-84.8l76-76.9v57.8h24.3v-97.1H494.5z
	 M391.2,449.1c-60.1,0-109-48.9-109-109c0-60.1,48.9-109,109-109c60.1,0,109,48.9,109,109C500.2,400.2,451.3,449.1,391.2,449.1z"/>
</svg>
