<?xml version="1.0" encoding="utf-8"?>
<!-- Generator: Adobe Illustrator 18.1.0, SVG Export Plug-In . SVG Version: 6.00 Build 0)  -->
<svg version="1.1" id="Calque_1" xmlns="http://www.w3.org/2000/svg" xmlns:xlink="http://www.w3.org/1999/xlink" x="0px" y="0px"
	 viewBox="28.7 0 40.1 40" enable-background="new 28.7 0 40.1 40" xml:space="preserve">
<g>
	<g>
		<path d="M59.3,31.3H38c-0.5,0-0.9-0.4-0.9-0.9V9.1c0-0.5,0.4-0.9,0.9-0.9h21.3c0.5,0,0.9,0.4,0.9,0.9v21.3
			C60.2,30.9,59.8,31.3,59.3,31.3z M38.9,29.4h19.6V9.9H38.9V29.4z"/>
	</g>
	<g>
		<path d="M53.8,25.7H43.5c-0.5,0-0.9-0.4-0.9-0.9V14.6c0-0.5,0.4-0.9,0.9-0.9h10.3c0.5,0,0.9,0.4,0.9,0.9v10.3
			C54.8,25.4,54.3,25.7,53.8,25.7z M44.5,24H53v-8.5h-8.5V24z"/>
	</g>
	<g>
		<path d="M41.5,5.8c-0.5,0-0.9-0.4-0.9-0.9V0.9C40.6,0.4,41,0,41.5,0s0.9,0.4,0.9,0.9V5C42.3,5.5,42,5.8,41.5,5.8z"/>
	</g>
	<g>
		<path d="M48.7,5.8c-0.5,0-0.9-0.4-0.9-0.9V0.9c0-0.5,0.4-0.9,0.9-0.9s0.9,0.4,0.9,0.9V5C49.6,5.5,49.1,5.8,48.7,5.8z"/>
	</g>
	<g>
		<path d="M55.9,5.8C55.4,5.8,55,5.5,55,5V0.9C55,0.4,55.4,0,55.9,0s0.9,0.4,0.9,0.9V5C56.8,5.5,56.4,5.8,55.9,5.8z"/>
	</g>
	<g>
		<path d="M41.5,40c-0.5,0-0.9-0.4-0.9-0.9V35c0-0.5,0.4-0.9,0.9-0.9s0.9,0.4,0.9,0.9v4.1C42.3,39.6,42,40,41.5,40z"/>
	</g>
	<g>
		<path d="M48.7,40c-0.5,0-0.9-0.4-0.9-0.9V35c0-0.5,0.4-0.9,0.9-0.9s0.9,0.4,0.9,0.9v4.1C49.6,39.6,49.1,40,48.7,40z"/>
	</g>
	<g>
		<path d="M55.9,40c-0.5,0-0.9-0.4-0.9-0.9V35c0-0.5,0.4-0.9,0.9-0.9s0.9,0.4,0.9,0.9v4.1C56.8,39.6,56.4,40,55.9,40z"/>
	</g>
	<g>
		<path d="M68,13.4h-4.1c-0.5,0-0.9-0.4-0.9-0.9c0-0.5,0.4-0.9,0.9-0.9H68c0.5,0,0.9,0.4,0.9,0.9C68.8,13,68.5,13.4,68,13.4z"/>
	</g>
	<g>
		<path d="M68,20.6h-4.1c-0.5,0-0.9-0.4-0.9-0.9c0-0.5,0.4-0.9,0.9-0.9H68c0.5,0,0.9,0.4,0.9,0.9C68.8,20.2,68.5,20.6,68,20.6z"/>
	</g>
	<g>
		<path d="M68,27.8h-4.1c-0.5,0-0.9-0.4-0.9-0.9c0-0.5,0.4-0.9,0.9-0.9H68c0.5,0,0.9,0.4,0.9,0.9C68.8,27.4,68.5,27.8,68,27.8z"/>
	</g>
	<g>
		<path d="M33.7,13.4h-4.1c-0.5,0-0.9-0.4-0.9-0.9c0-0.5,0.4-0.9,0.9-0.9h4.1c0.5,0,0.9,0.4,0.9,0.9C34.6,13,34.2,13.4,33.7,13.4z"
			/>
	</g>
	<g>
		<path d="M33.7,20.6h-4.1c-0.5,0-0.9-0.4-0.9-0.9c0-0.5,0.4-0.9,0.9-0.9h4.1c0.5,0,0.9,0.4,0.9,0.9C34.6,20.2,34.2,20.6,33.7,20.6z
			"/>
	</g>
	<g>
		<path d="M33.7,27.8h-4.1c-0.5,0-0.9-0.4-0.9-0.9c0-0.5,0.4-0.9,0.9-0.9h4.1c0.5,0,0.9,0.4,0.9,0.9C34.6,27.4,34.2,27.8,33.7,27.8z
			"/>
	</g>
</g>
</svg>
