<?xml version="1.0" encoding="utf-8"?>
<!-- Generator: Adobe Illustrator 18.1.0, SVG Export Plug-In . SVG Version: 6.00 Build 0)  -->
<svg version="1.1" id="Calque_1" xmlns="http://www.w3.org/2000/svg" xmlns:xlink="http://www.w3.org/1999/xlink" x="0px" y="0px"
	 viewBox="28.7 0 40.1 40" enable-background="new 28.7 0 40.1 40" xml:space="preserve">
<g>
	<path fill="none" d="M47.2,16.6h2.3c0.7,0,1.4,0.8,1.4,1.4v7.3c1.8,0.7,3.2,1.1,5,1.1c6.6,0,11.8-5.3,11.8-11.9S62.4,2.7,55.8,2.7
		c-3.2,0-6.1,1.3-8.3,3.4c1,1.4,1.6,3.1,1.6,5C49.1,13.2,48.4,15.2,47.2,16.6z"/>
	<path d="M55.8,1.5c-3.5,0-6.7,1.4-9.1,3.6c0.3,0.3,0.5,0.7,0.8,1c2.1-2.1,5.1-3.4,8.3-3.4c6.6,0,11.9,5.3,11.9,11.9
		s-5.2,11.9-11.8,11.9c-1.8,0-3.2-0.4-5-1.1v1.4c1.8,0.7,3.2,1,5,1c7.2,0,13.1-5.8,13.1-13.1C68.9,7.4,63,1.5,55.8,1.5z"/>
	<path d="M50.9,17.9c0-0.7-0.7-1.4-1.4-1.4h-2.3c-0.4,0.4-0.7,1.1-1.2,1.5h3.5v6.6V26v10.8h-0.1l-19.4,0.1v-19h0.1H34
		c-0.4-0.4-0.8-0.9-1.1-1.3h-2.7c-0.7,0-1.4,0.8-1.4,1.4v19c0,0.7,0.7,1.3,1.4,1.3h19.3c0.7,0,1.4-0.6,1.4-1.3V26.6v-1.4V17.9z"/>
	<path d="M34,18c1.6,1.4,3.7,2.3,6,2.3c1.3,0,2.5-0.3,3.6-0.8c0.4-0.2,0.8-0.4,1.1-0.6c0.4-0.3,0.8-0.6,1.3-0.9
		c0.4-0.4,0.8-0.8,1.2-1.3c1.2-1.6,1.9-3.5,1.9-5.5c0-1.9-0.6-3.6-1.6-5.1c-0.2-0.4-0.5-0.7-0.8-1c-1.7-1.8-4.1-3-6.7-3
		c-5,0-9.1,4.1-9.1,9.1c0,2.1,0.7,4,1.9,5.5C33.3,17.2,33.6,17.6,34,18z M32.3,11.2c0-4.3,3.5-7.8,7.8-7.8c2.3,0,4.4,1,5.8,2.6
		c0.3,0.3,0.5,0.7,0.8,1c0.8,1.2,1.2,2.6,1.2,4.2c0,2.1-0.9,4.1-2.3,5.5c-0.5,0.5-1,0.9-1.6,1.3c-0.2,0.1-0.4,0.2-0.7,0.3
		c-1,0.5-2.1,0.7-3.2,0.7c-1.4,0-2.7-0.4-3.9-1c-0.6-0.4-1.1-0.8-1.6-1.3C33.1,15.4,32.3,13.4,32.3,11.2z"/>
</g>
<g>
	<g>
		<path d="M54,13.8c0.2-0.2,0.4-0.2,0.6,0l5.3,5.3c0.2,0.2,0.2,0.4,0,0.6L59.6,20c-0.2,0.2-0.4,0.2-0.6,0l-5.3-5.3
			c-0.2-0.2-0.2-0.4,0-0.6L54,13.8z"/>
	</g>
	<g>
		<path d="M60,9.1c0.2,0.2,0.2,0.4,0,0.6L54.7,15c-0.2,0.2-0.4,0.2-0.6,0l-0.3-0.3c-0.2-0.2-0.2-0.4,0-0.6l5.3-5.3
			c0.2-0.2,0.4-0.2,0.6,0L60,9.1z"/>
	</g>
</g>
</svg>
