<?xml version="1.0" encoding="utf-8"?>
<!-- Generator: Adobe Illustrator 18.1.0, SVG Export Plug-In . SVG Version: 6.00 Build 0)  -->
<svg version="1.1" id="Calque_1" xmlns="http://www.w3.org/2000/svg" xmlns:xlink="http://www.w3.org/1999/xlink" x="0px" y="0px"
	 viewBox="28.7 0 40.1 40" enable-background="new 28.7 0 40.1 40" xml:space="preserve">
<path d="M48.7,17.2c-1.5,0-2.8,1.2-2.8,2.8c0,1.5,1.2,2.8,2.8,2.8s2.8-1.2,2.8-2.8C51.5,18.5,50.2,17.2,48.7,17.2z M48.7,21.4
	c-0.8,0-1.4-0.6-1.4-1.4c0-0.8,0.6-1.4,1.4-1.4c0.8,0,1.4,0.6,1.4,1.4C50.1,20.8,49.5,21.4,48.7,21.4z M68.8,20.2
	c0-4.3-1.4-8.6-4.2-12.2c0.5-0.5,0.7-1.2,0.7-1.8c0-0.7-0.3-1.4-0.8-1.9l0,0c-0.5-0.5-1.2-0.8-1.9-0.8c-0.7,0-1.3,0.3-1.9,0.7
	C57.1,1.4,52.9,0,48.6,0c-4.2,0-8.4,1.3-11.9,4c-0.5-0.4-1.1-0.6-1.8-0.6c-0.7,0-1.4,0.3-1.9,0.8l0,0c-0.5,0.5-0.8,1.2-0.8,1.9
	c0,0.6,0.2,1.2,0.6,1.8c-2.7,3.5-4,7.7-4,11.9c0,4.3,1.4,8.5,4.1,12.1c-0.5,0.5-0.7,1.2-0.7,1.9c0,0.7,0.3,1.4,0.8,1.9
	c0.5,0.5,1.2,0.8,1.9,0.8c0.7,0,1.3-0.2,1.8-0.7C40.3,38.6,44.7,40,49,40h0c4.2,0,8.4-1.3,12-4c0.5,0.4,1.1,0.6,1.6,0.6h0
	c0.7,0,1.4-0.3,1.9-0.8c0.5-0.5,0.8-1.2,0.8-1.9c0-0.6-0.2-1.2-0.6-1.6C67.5,28.6,68.8,24.4,68.8,20.2z M61.6,5.1
	c0.3-0.3,0.6-0.4,1-0.4c0.4,0,0.7,0.1,1,0.4v0c0.3,0.3,0.4,0.6,0.4,1c0,0.4-0.1,0.7-0.4,1c-0.3,0.3-0.6,0.4-1,0.4
	c-0.4,0-0.7-0.1-1-0.4c-0.3-0.3-0.4-0.6-0.4-1C61.2,5.8,61.3,5.4,61.6,5.1z M33.9,5.1L33.9,5.1c0.3-0.3,0.6-0.4,1-0.4
	c0.4,0,0.7,0.1,1,0.4c0.3,0.3,0.4,0.6,0.4,1c0,0.4-0.1,0.7-0.4,1c-0.3,0.3-0.6,0.4-1,0.4c-0.4,0-0.7-0.1-1-0.4
	c-0.3-0.3-0.4-0.6-0.4-1C33.5,5.7,33.7,5.4,33.9,5.1z M35.9,34.7c-0.3,0.3-0.6,0.4-1,0.4c-0.4,0-0.7-0.1-1-0.4
	c-0.3-0.3-0.4-0.6-0.4-1c0-0.4,0.1-0.7,0.4-1c0.3-0.3,0.6-0.4,1-0.4c0.4,0,0.7,0.1,1,0.4c0.3,0.3,0.4,0.6,0.4,1
	C36.3,34.1,36.2,34.5,35.9,34.7z M63.6,34.8c-0.3,0.3-0.6,0.4-1,0.4c-0.4,0-0.7-0.1-1-0.4c-0.3-0.3-0.4-0.6-0.4-1
	c0-0.4,0.1-0.7,0.4-1l0,0c0.3-0.3,0.6-0.4,1-0.4c0.4,0,0.7,0.1,1,0.4c0.3,0.3,0.4,0.6,0.4,1C63.9,34.1,63.8,34.5,63.6,34.8z
	 M63.7,31.3c-0.4-0.2-0.8-0.3-1.2-0.3c-0.5,0-1,0.1-1.4,0.4l-9.1-9.1c-0.3,0.4-0.6,0.7-1,1l9.1,9.1c-0.2,0.4-0.4,0.9-0.4,1.4
	c0,0.4,0.1,0.8,0.3,1.2c-3.3,2.5-7.2,3.7-11.1,3.7c-4,0-8.1-1.3-11.5-3.9c0.1-0.3,0.2-0.6,0.2-0.9c0-0.5-0.1-1-0.4-1.4l9-9
	c-0.4-0.3-0.7-0.6-1-1l-9,9c-0.4-0.2-0.9-0.4-1.4-0.4c-0.3,0-0.6,0.1-0.9,0.2c-2.6-3.4-3.8-7.4-3.8-11.4c0-3.9,1.2-7.8,3.7-11.1
	c0.3,0.1,0.7,0.2,1,0.2h0c0.5,0,1-0.1,1.4-0.4l9.1,9.1c0.3-0.4,0.6-0.7,1-1l-9.1-9.1c0.2-0.4,0.4-0.9,0.4-1.4c0-0.3-0.1-0.7-0.2-1
	c3.3-2.5,7.2-3.7,11.1-3.7c4,0,8,1.3,11.4,3.8c-0.1,0.3-0.2,0.6-0.2,0.9c0,0.5,0.1,1,0.4,1.4L51,16.7c0.4,0.3,0.7,0.6,1,1l9.1-9.1
	c0.4,0.2,0.9,0.4,1.4,0.4h0c0.3,0,0.6-0.1,0.9-0.2c2.6,3.4,3.9,7.4,3.9,11.5C67.4,24.1,66.2,28,63.7,31.3z"/>
</svg>
