<?xml version="1.0" encoding="utf-8"?>
<!-- Generator: Adobe Illustrator 18.1.0, SVG Export Plug-In . SVG Version: 6.00 Build 0)  -->
<svg version="1.1" id="Calque_1" xmlns="http://www.w3.org/2000/svg" xmlns:xlink="http://www.w3.org/1999/xlink" x="0px" y="0px"
	 viewBox="28.7 0 40.1 40" enable-background="new 28.7 0 40.1 40" xml:space="preserve">
<path d="M61.6,33.1c-1.5,1.7-3.4,3-5.6,4c-2.3,1-4.7,1.5-7.1,1.5c-5.4,0-10.5-2.5-13.9-6.8c0.6-0.5,0.9-1.2,0.9-2
	c0-0.4-0.1-0.7-0.2-1.1c-0.4-1-1.4-1.6-2.4-1.6c-0.4,0-0.7,0.1-1.1,0.2c-1,0.4-1.6,1.4-1.6,2.4c0,0.4,0.1,0.7,0.2,1.1l0,0
	c0.4,1,1.4,1.6,2.4,1.6c0.2,0,0.4,0,0.5-0.1C37.3,37.2,43,40,48.8,40c2.6,0,5.2-0.5,7.7-1.6c2.4-1.1,4.5-2.6,6.2-4.5
	C62.2,33.7,61.9,33.5,61.6,33.1z M32,30.4c-0.1-0.2-0.1-0.3-0.1-0.5c0-0.5,0.3-1,0.8-1.2c0.2-0.1,0.4-0.1,0.5-0.1
	c0.5,0,1,0.3,1.2,0.8c0.1,0.2,0.1,0.3,0.1,0.5c0,0.5-0.3,1-0.8,1.2c-0.2,0.1-0.4,0.1-0.5,0.1C32.7,31.2,32.2,30.9,32,30.4
	 M31.2,25.8c0.2-0.1,0.4-0.2,0.6-0.2c-0.4-1.5-0.6-3-0.6-4.4c0-6.7,3.9-13.1,10.4-16c1.5-0.7,3.1-1.1,4.7-1.3
	c0.5,0.9,1.4,1.5,2.4,1.5c0.4,0,0.7-0.1,1.1-0.2c1-0.4,1.6-1.4,1.6-2.4c0-0.4-0.1-0.7-0.2-1.1c-0.4-1-1.4-1.6-2.4-1.6
	c-0.4,0-0.7,0.1-1.1,0.2c-0.9,0.4-1.5,1.3-1.6,2.3c-1.7,0.2-3.4,0.7-5,1.4C34.1,7,30,13.9,30,21.1c0,1.7,0.2,3.3,0.7,5
	C30.8,26,31,25.9,31.2,25.8z M47.5,3.2c-0.1-0.2-0.1-0.3-0.1-0.5c0-0.5,0.3-1,0.8-1.2c0.2-0.1,0.4-0.1,0.5-0.1c0.5,0,1,0.3,1.2,0.8
	c0.1,0.2,0.1,0.3,0.1,0.5c0,0.5-0.3,1-0.8,1.2c-0.2,0.1-0.4,0.1-0.5,0.1C48.2,3.9,47.7,3.6,47.5,3.2 M66.4,27.9
	c0.8-2.1,1.3-4.4,1.3-6.8c0-2.6-0.5-5.2-1.6-7.7c-2.5-5.6-7.3-9.3-12.8-10.7c0,0.5,0,0.9-0.2,1.3C58,5.4,62.5,8.8,64.8,14
	c1,2.3,1.5,4.7,1.5,7.1c0,2.2-0.4,4.3-1.2,6.3c-0.1,0-0.2,0-0.3,0c-0.4,0-0.7,0.1-1.1,0.2c-1,0.4-1.6,1.4-1.6,2.4
	c0,0.4,0.1,0.7,0.2,1.1h0c0.4,1,1.4,1.6,2.4,1.6c0.4,0,0.7-0.1,1.1-0.2c1-0.4,1.6-1.4,1.6-2.4c0-0.4-0.1-0.7-0.2-1.1
	C67,28.5,66.7,28.1,66.4,27.9z M63.6,30.5c-0.1-0.2-0.1-0.3-0.1-0.5c0-0.5,0.3-1,0.8-1.2c0.2-0.1,0.4-0.1,0.5-0.1
	c0.5,0,1,0.3,1.2,0.8c0.1,0.2,0.1,0.3,0.1,0.5c0,0.5-0.3,1-0.8,1.2c-0.2,0.1-0.4,0.1-0.5,0.1C64.3,31.3,63.8,31,63.6,30.5"/>
</svg>
