<?xml version="1.0" encoding="utf-8"?>
<!-- Generator: Adobe Illustrator 18.1.0, SVG Export Plug-In . SVG Version: 6.00 Build 0)  -->
<svg version="1.1" id="Calque_1" xmlns="http://www.w3.org/2000/svg" xmlns:xlink="http://www.w3.org/1999/xlink" x="0px" y="0px"
	 viewBox="508.7 195.4 20 32" enable-background="new 508.7 195.4 20 32" xml:space="preserve">
<g>
	<circle cx="519.9" cy="198.6" r="2.5"/>
	<path d="M527.8,209.6c-0.7-0.1-3.5-0.6-3.7-0.7c-0.2-0.1,0,0-0.1-0.1c-0.1-0.1-2.5-5.3-2.8-5.6c-0.2-0.3-0.9-1-1.8-1.3
		c-0.9-0.3-1.9,0.2-1.9,0.2s-4.6,2.7-4.9,2.8c-0.3,0.2-0.6,0.7-0.6,0.7l-2.2,4.1c-0.2,0.2-0.3,0.5-0.3,0.8c0,0.7,0.6,1.3,1.3,1.3
		c0.6,0,1.1-0.4,1.3-1l2-3.8l1.3-0.7c-0.1,0.3-1.3,5.9-1.3,5.9l-1.2,6.7l-4.1,5c-0.3,0.3-0.5,0.7-0.5,1.1c0,0.8,0.7,1.5,1.5,1.5
		c0.5,0,1-0.3,1.2-0.6c0.8-0.9,4.6-5.4,4.9-5.8c0.4-0.5,0.5-0.7,0.6-1c0.1-0.3,0.7-4.4,0.7-4.4l3.9,3.9v6.9h0
		c0.1,0.8,0.7,1.4,1.5,1.4c0.8,0,1.4-0.6,1.5-1.4h0c0,0,0,0,0-0.1c0,0,0,0,0,0c0,0,0,0,0,0c0-1,0-6.2,0-7.4c0-1.3-0.4-1.6-0.5-1.7
		c-0.1-0.1-3.7-4-3.7-4l0.8-3.9c0,0,1,2,1.1,2.3c0.1,0.2,0.4,0.6,0.8,0.7c0.3,0.1,4.7,0.9,4.7,0.9l0,0c0.1,0,0.1,0,0.2,0
		c0.7,0,1.3-0.6,1.3-1.3C529,210.2,528.5,209.7,527.8,209.6z"/>
</g>
</svg>
