<?xml version="1.0" encoding="utf-8"?>
<!-- Generator: Adobe Illustrator 18.1.0, SVG Export Plug-In . SVG Version: 6.00 Build 0)  -->
<svg version="1.1" id="Calque_1" xmlns="http://www.w3.org/2000/svg" xmlns:xlink="http://www.w3.org/1999/xlink" x="0px" y="0px"
	 viewBox="0 0 104.1 104.1" enable-background="new 0 0 104.1 104.1" xml:space="preserve">
<g>
	<path fill="#010202" d="M-573.7,512.1l-0.9,3.3c-0.1,0.2-1,3-1.7,4.7c-0.1,0.3-0.2,0.5-0.4,0.8c-0.6,1.1-0.5,1.2-0.2,1.4
		c0.3-0.2,1-1.4,1.3-1.9c1.4-2.5,1.6-2.8,1.6-2.8l0.2-0.2c0.5-0.9,0.6-1.2,0.9-2.1l0.4-1.1l-0.6-1.8
		C-573.3,512.3-573.5,512.2-573.7,512.1z"/>
	<path fill="#010202" d="M-568.6,497L-568.6,497c0.2,0,0.5-0.1,0.7-0.2c1.1-0.4,1.6-1.6,1.2-2.6c-0.3-0.8-1.1-1.3-1.9-1.3
		c-0.2,0-0.5,0.1-0.7,0.2c-1.1,0.4-1.6,1.6-1.2,2.6C-570.2,496.5-569.5,497-568.6,497z"/>
	<path fill="#010202" d="M-568.1,500.9c0.1-0.2,0-0.5-0.1-0.7l-2.8-0.7c-0.1,0-0.2-0.1-0.3-0.1l-3.3,0.9c-0.2,0-0.7,0.3-0.8,0.5
		l-2.6,4c-0.2,0.5-0.5,1-0.5,1.4c0.1-0.1,0.2-0.2,0.2-0.2s0.2-0.2,0.2-0.3l0,0l2.6-3l3.6-1.9l-1.6,7.4c-0.3,1.6-0.2,2.3,1.2,2.7
		l0.3,0.2l1.8,5.2l1,3c0.7,1.6,1.2,2.2,1.4,2.5c0.1-0.5,0.1-1.8-0.4-3.7l-1.9-5.3v-0.1c-0.2-1.4-0.2-1.4-0.2-2.8V510l0.3-1.2
		L-568.1,500.9z"/>
	<path fill="#010202" d="M-564.3,506.5l-0.2-0.1l-1.5-2.6l-0.9-1.6l-0.2,1h0.1l1.2,3c0.2,0.2,0.2,0.3,0.2,0.3s0.1,0.1,0.2,0.3
		c0.5,0.2,2.1,0.9,3,1.2c0.2,0.1,0.2,0.1,0.4,0.2c0.2,0.1,0.7,0.2,1.2,0.4c-0.6-0.5-1.8-1.2-2.4-1.5
		C-563.7,506.8-564.1,506.7-564.3,506.5z"/>
	<path fill="#010202" d="M-571.1,482.5c-14.6,0-26.5,11.8-26.5,26.5c0,14.6,11.8,26.5,26.5,26.5c14.6,0,26.5-11.8,26.5-26.5
		S-556.5,482.5-571.1,482.5z M-569.8,491.8c0.4-0.2,0.8-0.2,1.2-0.2c1.5,0,2.8,0.9,3.3,2.3c0.6,1.8-0.3,3.8-2.1,4.5
		c-0.4,0.2-0.8,0.2-1.2,0.2l0,0c-1.5,0-2.8-0.9-3.3-2.3C-572.6,494.4-571.6,492.4-569.8,491.8z M-559.4,510
		c-0.2,0.2-0.5,0.2-0.8,0.2c-0.5,0-1.3-0.2-2.3-0.5c-0.2-0.1-0.3-0.1-0.4-0.2c-1.2-0.4-3.3-1.3-3.3-1.3l-0.2-0.1l-0.1-0.2
		c-0.2-0.3-0.3-0.4-0.3-0.4s0,0-0.3-0.5l-0.1-0.1l-0.1-0.1l-0.5-1.2l-0.8,3.6l-0.2,1.1c0,1.2,0,1.2,0.2,2.5l1.8,5.2
		c0.5,1.7,1,4.9-0.3,5.6c-0.2,0.1-0.3,0.2-0.5,0.2l0,0c-0.6,0-1.5-0.5-2.9-3.6v-0.1l-1-3.1l-0.2-0.6c-0.2,0.6-0.5,1-0.9,1.9
		l-0.2,0.2l0,0c-0.2,0.3-0.5,1-1.4,2.6c-0.9,1.5-1.4,2.4-2.2,2.6c-0.1,0-0.2,0.1-0.4,0.1c-0.2,0-0.5-0.1-0.7-0.2
		c-1.7-1-0.9-2.6-0.5-3.4c0.2-0.2,0.2-0.5,0.3-0.6c0.6-1.6,1.6-4.4,1.6-4.7l1.1-4.3c-0.3-0.8-0.2-1.6-0.1-2.6l0.9-4.4l-0.6,0.3
		l-2.3,2.7c-0.1,0.1-0.2,0.2-0.2,0.2c-0.6,0.8-1.1,1.4-1.8,1.4c-0.2,0-0.4-0.1-0.5-0.2c-1.3-1,0.2-3.9,0.3-4l0,0l2.6-4.2
		c0.3-0.5,1.2-0.9,1.7-1.1l3.3-0.9c0.3-0.1,0.7,0,1,0.1l2.8,0.7c0.3,0.1,0.5,0.3,0.7,0.5h0.1l2.3,3.7l1.3,2.3
		c0.2,0.2,0.5,0.3,0.9,0.5c1.6,0.9,3.6,1.9,3.6,3.3C-559,509.5-559.2,509.8-559.4,510z"/>
</g>
<g>
	<path fill="#010202" d="M58.9,33.9v-2.4h1.6c-0.5-3.7-3.5-6.6-7.2-7.2v1.6H51v-1.6c-3.7,0.5-6.6,3.5-7.2,7.2h1.6v2.4h-1.6
		c0.6,4.1,4.1,7.3,8.4,7.3s7.8-3.2,8.4-7.3H58.9z M52.4,34.3c-0.9,0-1.6-0.7-1.6-1.6c0-0.1,0-0.3,0.1-0.4c-1.5-1.5-3.4-3.7-3.1-4
		c0.3-0.3,2.6,1.5,4.3,2.9c0.1,0,0.2-0.1,0.4-0.1c0.9,0,1.6,0.7,1.6,1.6C54.1,33.6,53.3,34.3,52.4,34.3z"/>
	<path fill="#010202" d="M37.9,34.4c-1-0.1-2.8,0-4.1,1.3s-1.9,3.6-1.9,6.7c0.2,9.7,0.1,25.2,0.1,29.5h16.9V47.1
		C42.7,45.7,38.3,40.6,37.9,34.4z"/>
	<path fill="#010202" d="M66.3,34.5c-0.5,6.1-4.9,11.2-10.8,12.6V72h16.9c0-4.5,0-20.7,0-29.5c0-2.9-0.7-4.9-2-6.3
		S67.4,34.5,66.3,34.5z"/>
	<path fill="#010202" d="M52.1,0C23.3,0,0,23.3,0,52.1s23.3,52.1,52.1,52.1s52.1-23.3,52.1-52.1S80.9,0,52.1,0z M51.1,73.2
		c0,0.6-0.5,1.2-1.2,1.2H30.6c-0.3,0-0.6-0.1-0.8-0.4c-0.2-0.2-0.4-0.5-0.4-0.9c0-0.2,0.1-19.5,0-30.7c-0.1-3.8,0.8-6.6,2.6-8.4
		c1.7-1.7,3.8-2.1,5.2-2.1c1.1,0,1.9,0.2,2.1,0.2c0.5,0.1,0.9,0.6,0.9,1.2c0,5.8,4.2,10.7,9.9,11.6c0.6,0.1,1,0.6,1,1.2V73.2z
		 M41.4,32.8c0-6,4.9-10.8,10.8-10.8s10.8,4.9,10.8,10.8s-4.9,10.8-10.8,10.8S41.4,38.7,41.4,32.8z M74.7,73.1
		c0,0.3-0.1,0.6-0.4,0.8c-0.1,0.3-0.4,0.4-0.8,0.4H54.2c-0.7,0-1.2-0.5-1.2-1.2v-27c0-0.6,0.4-1.1,1-1.2c5.7-0.9,9.9-5.8,9.9-11.6
		c0-0.6,0.4-1.1,1-1.2c0.1,0,4.1-0.6,7,2.3c1.8,1.8,2.7,4.5,2.7,8C74.7,52.7,74.7,73.1,74.7,73.1z"/>
</g>
</svg>
