<?xml version="1.0" encoding="utf-8"?>
<!-- Generator: Adobe Illustrator 18.1.0, SVG Export Plug-In . SVG Version: 6.00 Build 0)  -->
<svg version="1.1" id="Calque_1" xmlns="http://www.w3.org/2000/svg" xmlns:xlink="http://www.w3.org/1999/xlink" x="0px" y="0px"
	 viewBox="0 0 100 40" enable-background="new 0 0 100 40" xml:space="preserve">
<g>
	<path fill="#FFFFFF" d="M7.7,4.9c5.5-6.2,14.6-6.5,21-0.8c2.9,2.6,4.5,5.8,5,9.2l6.4,0L36.7,17l-2.9,0c-0.4,2.8-1.6,5.6-3.7,7.9
		c-5.5,6.2-14.6,6.5-21,0.8C2.8,20.1,2.2,11,7.7,4.9z M27.2,22.3c1.4-1.6,2.2-3.4,2.6-5.2l-10.5,0l0.1-3.8l10.3,0
		c-0.5-2.2-1.7-4.3-3.7-6.1c-4.7-4.2-11.2-4.1-15.2,0.4s-3.4,10.9,1.3,15.2C16.7,26.9,23.2,26.8,27.2,22.3z"/>
	<path fill="#FFFFFF" d="M67.2,36l-2.8,2.8L42.3,16.7l2.8-2.8L67.2,36z"/>
	<path fill="#FFFFFF" d="M83.8,39.8c-2.8-0.1-5.5-1.2-8.3-4L63.4,23.7l3-3L78.6,33c1.9,1.9,3.6,2.7,5.4,2.8c2.2,0.1,4.4-0.7,6.1-2.5
		c1.7-1.7,2.6-4,2.5-6.1c-0.1-1.7-0.8-3.4-2.8-5.4L77.6,9.5l3-3l12.1,12.1c2.8,2.8,3.9,5.5,4,8.3c0.1,3.2-1.2,6.6-3.7,9.1
		C90.4,38.6,87.1,39.9,83.8,39.8z"/>
</g>
</svg>
